<mxfile host="app.diagrams.net" modified="2024-07-12T00:24:41.291Z" agent="Mozilla/5.0 (Windows NT 10.0; Win64; x64) AppleWebKit/537.36 (KHTML, like Gecko) Chrome/126.0.0.0 Safari/537.36" etag="FAF2Bi4yvl2B002_nmSB" version="24.6.4" type="device">
  <diagram name="Page-1" id="TQOOhHZNaAK0VehKdsmV">
    <mxGraphModel dx="1626" dy="784" grid="1" gridSize="10" guides="1" tooltips="1" connect="1" arrows="1" fold="1" page="1" pageScale="1" pageWidth="850" pageHeight="1100" math="0" shadow="0">
      <root>
        <mxCell id="0" />
        <mxCell id="1" parent="0" />
        <mxCell id="twjF9zRXrB2mPLFjOxAW-1" value="Actor" style="shape=umlActor;verticalLabelPosition=bottom;verticalAlign=top;html=1;" vertex="1" parent="1">
          <mxGeometry x="410" y="370" width="30" height="60" as="geometry" />
        </mxCell>
        <mxCell id="twjF9zRXrB2mPLFjOxAW-3" value="" style="endArrow=classic;html=1;rounded=0;" edge="1" parent="1">
          <mxGeometry width="50" height="50" relative="1" as="geometry">
            <mxPoint x="420" y="460" as="sourcePoint" />
            <mxPoint x="420" y="520" as="targetPoint" />
          </mxGeometry>
        </mxCell>
        <mxCell id="twjF9zRXrB2mPLFjOxAW-4" value="Register New Client" style="ellipse;whiteSpace=wrap;html=1;" vertex="1" parent="1">
          <mxGeometry x="350" y="530" width="120" height="50" as="geometry" />
        </mxCell>
        <mxCell id="twjF9zRXrB2mPLFjOxAW-5" value="" style="endArrow=classic;html=1;rounded=0;" edge="1" parent="1">
          <mxGeometry width="50" height="50" relative="1" as="geometry">
            <mxPoint x="410" y="590" as="sourcePoint" />
            <mxPoint x="410" y="650" as="targetPoint" />
          </mxGeometry>
        </mxCell>
        <mxCell id="twjF9zRXrB2mPLFjOxAW-6" value="Assign client ID" style="ellipse;whiteSpace=wrap;html=1;" vertex="1" parent="1">
          <mxGeometry x="350" y="650" width="110" height="50" as="geometry" />
        </mxCell>
        <mxCell id="twjF9zRXrB2mPLFjOxAW-7" value="" style="endArrow=classic;html=1;rounded=0;" edge="1" parent="1">
          <mxGeometry width="50" height="50" relative="1" as="geometry">
            <mxPoint x="490" y="550" as="sourcePoint" />
            <mxPoint x="550" y="550" as="targetPoint" />
          </mxGeometry>
        </mxCell>
        <mxCell id="twjF9zRXrB2mPLFjOxAW-8" value="Collect Client info" style="ellipse;whiteSpace=wrap;html=1;" vertex="1" parent="1">
          <mxGeometry x="590" y="530" width="110" height="50" as="geometry" />
        </mxCell>
        <mxCell id="twjF9zRXrB2mPLFjOxAW-9" value="Verify client info" style="ellipse;whiteSpace=wrap;html=1;" vertex="1" parent="1">
          <mxGeometry x="590" y="650" width="110" height="50" as="geometry" />
        </mxCell>
        <mxCell id="twjF9zRXrB2mPLFjOxAW-11" value="Extends" style="endArrow=block;endSize=16;endFill=0;html=1;rounded=0;entryX=0.5;entryY=0;entryDx=0;entryDy=0;exitX=0.5;exitY=1;exitDx=0;exitDy=0;" edge="1" parent="1" source="twjF9zRXrB2mPLFjOxAW-8" target="twjF9zRXrB2mPLFjOxAW-9">
          <mxGeometry x="-0.1429" y="35" width="160" relative="1" as="geometry">
            <mxPoint x="530" y="620" as="sourcePoint" />
            <mxPoint x="690" y="620" as="targetPoint" />
            <Array as="points" />
            <mxPoint as="offset" />
          </mxGeometry>
        </mxCell>
      </root>
    </mxGraphModel>
  </diagram>
</mxfile>
